<?xml version="1.0" encoding="UTF-8" standalone="no"?>
<svg
   width="100%"
   height="100%"
   viewBox="0 0 773 615"
   fill="none"
   version="1.1"
   id="svg389">
  <path
     d="M279 104.039H229V136.667H279V104.039Z"
     fill="#C9CACC"
     id="path225" />
  <path
     d="M275 102H233V138.81H275V102Z"
     fill="#343433"
     id="path227" />
  <g
     clip-path="url(#clip0)"
     id="g247">
    <path
       d="M410.417 565H0V615H410.417V565Z"
       fill="#252525"
       id="path229" />
    <path
       d="M33.3333 579.583H12.5V600.417H33.3333V579.583Z"
       fill="#8D7966"
       id="path231" />
    <path
       d="M85.4166 579.583H64.5833V600.417H85.4166V579.583Z"
       fill="#8D7966"
       id="path233" />
    <path
       d="M137.5 579.583H116.667V600.417H137.5V579.583Z"
       fill="#8D7966"
       id="path235" />
    <path
       d="M189.583 579.583H168.75V600.417H189.583V579.583Z"
       fill="#8D7966"
       id="path237" />
    <path
       d="M241.667 579.583H220.833V600.417H241.667V579.583Z"
       fill="#8D7966"
       id="path239" />
    <path
       d="M293.75 579.583H272.917V600.417H293.75V579.583Z"
       fill="#8D7966"
       id="path241" />
    <path
       d="M345.833 579.583H325V600.417H345.833V579.583Z"
       fill="#8D7966"
       id="path243" />
    <path
       d="M397.917 579.583H377.083V600.417H397.917V579.583Z"
       fill="#8D7966"
       id="path245" />
  </g>
  <g
     clip-path="url(#clip1)"
     id="g263">
    <path
       d="M772.25 565H466V615H772.25V565Z"
       fill="#252525"
       id="path249" />
    <path
       d="M499.333 579.583H478.5V600.417H499.333V579.583Z"
       fill="#8D7966"
       id="path251" />
    <path
       d="M551.417 579.583H530.583V600.417H551.417V579.583Z"
       fill="#8D7966"
       id="path253" />
    <path
       d="M603.5 579.583H582.667V600.417H603.5V579.583Z"
       fill="#8D7966"
       id="path255" />
    <path
       d="M655.583 579.583H634.75V600.417H655.583V579.583Z"
       fill="#8D7966"
       id="path257" />
    <path
       d="M707.667 579.583H686.833V600.417H707.667V579.583Z"
       fill="#8D7966"
       id="path259" />
    <path
       d="M759.75 579.583H738.917V600.417H759.75V579.583Z"
       fill="#8D7966"
       id="path261" />
  </g>
  <g
     clip-path="url(#clip2)"
     id="g273">
    <path
       fill-rule="evenodd"
       clip-rule="evenodd"
       d="M235.914 175.46C232.095 175.46 229 170.656 229 164.73C229 158.804 232.095 154 235.914 154C239.732 154 242.827 158.804 242.827 164.73C242.827 170.656 239.732 175.46 235.914 175.46Z"
       fill="#C9CACC"
       id="path265" />
    <path
       fill-rule="evenodd"
       clip-rule="evenodd"
       d="M272.086 175.46C268.268 175.46 265.173 170.656 265.173 164.73C265.173 158.804 268.268 154 272.086 154C275.905 154 279 158.804 279 164.73C279 170.656 275.905 175.46 272.086 175.46Z"
       fill="#C9CACC"
       id="path267" />
    <path
       d="M272.584 156.434H235.416V173.137H272.584V156.434Z"
       fill="#ACAAAE"
       id="path269" />
    <path
       d="M262.186 156.434H245.814V173.027H262.186V156.434Z"
       fill="#907966"
       id="path271" />
  </g>
  <path
     d="M604.115 23V109H637.96V23H604.115Z"
     fill="#C9CACC"
     id="path275" />
  <path
     d="M602 29.88V102.12H640.183V29.88H602Z"
     fill="#343433"
     id="path277" />
  <rect
     x="672"
     width="91"
     height="47"
     rx="10"
     fill="#252525"
     id="rect279" />
  <rect
     x="684"
     y="13"
     width="22"
     height="22"
     fill="#8D7966"
     id="rect281" />
  <rect
     x="731"
     y="13"
     width="22"
     height="22"
     fill="#8D7966"
     id="rect283" />
  <rect
     x="672"
     y="45"
     width="91"
     height="47"
     rx="10"
     fill="#252525"
     id="rect285" />
  <rect
     x="684"
     y="58"
     width="22"
     height="22"
     fill="#8D7966"
     id="rect287" />
  <rect
     x="731"
     y="58"
     width="22"
     height="22"
     fill="#8D7966"
     id="rect289" />
  <rect
     x="672"
     y="88"
     width="91"
     height="47"
     rx="10"
     fill="#252525"
     id="rect291" />
  <rect
     x="684"
     y="101"
     width="22"
     height="22"
     fill="#8D7966"
     id="rect293" />
  <rect
     x="731"
     y="101"
     width="22"
     height="22"
     fill="#8D7966"
     id="rect295" />
  <g
     clip-path="url(#clip3)"
     id="g305">
    <path
       fill-rule="evenodd"
       clip-rule="evenodd"
       d="M306.914 461.46C303.095 461.46 300 456.656 300 450.73C300 444.804 303.095 440 306.914 440C310.732 440 313.827 444.804 313.827 450.73C313.827 456.656 310.732 461.46 306.914 461.46Z"
       fill="#C9CACC"
       id="path297" />
    <path
       fill-rule="evenodd"
       clip-rule="evenodd"
       d="M343.086 461.46C339.268 461.46 336.173 456.656 336.173 450.73C336.173 444.804 339.268 440 343.086 440C346.905 440 350 444.804 350 450.73C350 456.656 346.905 461.46 343.086 461.46Z"
       fill="#C9CACC"
       id="path299" />
    <path
       d="M343.584 442.434H306.416V459.137H343.584V442.434Z"
       fill="#ACAAAE"
       id="path301" />
    <path
       d="M333.186 442.434H316.814V459.027H333.186V442.434Z"
       fill="#907966"
       id="path303" />
  </g>
  <path
     fill-rule="evenodd"
     clip-rule="evenodd"
     d="M665.787 211C674.707 211 681.937 219.064 681.937 229.012V406.708C681.937 416.657 674.707 424.72 665.787 424.72C656.866 424.72 649.636 416.657 649.636 406.708V229.012C649.636 219.064 656.866 211 665.787 211Z"
     fill="#C9CACC"
     id="path307" />
  <path
     d="M681.937 225.746H649.636V410.161H681.937V225.746Z"
     fill="#9A999B"
     id="path309" />
  <path
     fill-rule="evenodd"
     clip-rule="evenodd"
     d="M623.611 211C632.531 211 639.761 219.064 639.761 229.012V406.708C639.761 416.657 632.531 424.72 623.611 424.72C614.69 424.72 607.46 416.657 607.46 406.708V229.012C607.46 219.064 614.69 211 623.611 211Z"
     fill="#C9CACC"
     id="path311" />
  <path
     d="M639.761 225.746H607.46V410.161H639.761V225.746Z"
     fill="#9A999B"
     id="path313" />
  <path
     fill-rule="evenodd"
     clip-rule="evenodd"
     d="M581.351 211C590.317 211 597.586 219.106 597.586 229.105V406.615C597.586 416.614 590.317 424.72 581.351 424.72C572.386 424.72 565.117 416.614 565.117 406.615V229.105C565.117 219.106 572.386 211 581.351 211Z"
     fill="#C9CACC"
     id="path315" />
  <path
     d="M597.586 225.746H565.117V410.161H597.586V225.746Z"
     fill="#9A999B"
     id="path317" />
  <path
     fill-rule="evenodd"
     clip-rule="evenodd"
     d="M539.176 211C548.141 211 555.41 219.106 555.41 229.105V406.615C555.41 416.614 548.141 424.72 539.176 424.72C530.21 424.72 522.941 416.614 522.941 406.615V229.105C522.941 219.106 530.21 211 539.176 211Z"
     fill="#C9CACC"
     id="path319" />
  <path
     d="M555.41 225.746H522.941V410.161H555.41V225.746Z"
     fill="#9A999B"
     id="path321" />
  <path
     fill-rule="evenodd"
     clip-rule="evenodd"
     d="M497 211C505.966 211 513.234 219.106 513.234 229.105V406.615C513.234 416.614 505.966 424.72 497 424.72C488.034 424.72 480.766 416.614 480.766 406.615V229.105C480.766 219.106 488.034 211 497 211Z"
     fill="#C9CACC"
     id="path323" />
  <path
     d="M513.234 225.746H480.766V410.161H513.234V225.746Z"
     fill="#9A999B"
     id="path325" />
  <path
     fill-rule="evenodd"
     clip-rule="evenodd"
     d="M454.741 211C463.661 211 470.891 219.064 470.891 229.012V406.708C470.891 416.657 463.661 424.72 454.741 424.72C445.82 424.72 438.59 416.657 438.59 406.708V229.012C438.59 219.064 445.82 211 454.741 211Z"
     fill="#C9CACC"
     id="path327" />
  <path
     d="M470.891 225.746H438.59V410.161H470.891V225.746Z"
     fill="#9A999B"
     id="path329" />
  <path
     fill-rule="evenodd"
     clip-rule="evenodd"
     d="M412.481 211C421.447 211 428.715 219.106 428.715 229.105V406.615C428.715 416.614 421.447 424.72 412.481 424.72C403.515 424.72 396.247 416.614 396.247 406.615V229.105C396.247 219.106 403.515 211 412.481 211Z"
     fill="#C9CACC"
     id="path331" />
  <path
     d="M428.715 225.746H396.247V410.161H428.715V225.746Z"
     fill="#9A999B"
     id="path333" />
  <path
     fill-rule="evenodd"
     clip-rule="evenodd"
     d="M370.305 211C379.271 211 386.54 219.106 386.54 229.105V406.615C386.54 416.614 379.271 424.72 370.305 424.72C361.34 424.72 354.071 416.614 354.071 406.615V229.105C354.071 219.106 361.34 211 370.305 211Z"
     fill="#C9CACC"
     id="path335" />
  <path
     d="M386.54 225.746H354.071V410.161H386.54V225.746Z"
     fill="#9A999B"
     id="path337" />
  <path
     fill-rule="evenodd"
     clip-rule="evenodd"
     d="M328.13 211C337.096 211 344.364 219.106 344.364 229.105V406.615C344.364 416.614 337.096 424.72 328.13 424.72C319.164 424.72 311.895 416.614 311.895 406.615V229.105C311.895 219.106 319.164 211 328.13 211Z"
     fill="#C9CACC"
     id="path339" />
  <path
     d="M344.364 225.746H311.895V410.161H344.364V225.746Z"
     fill="#9A999B"
     id="path341" />
  <path
     fill-rule="evenodd"
     clip-rule="evenodd"
     d="M287.46 211C296.426 211 303.695 219.106 303.695 229.105V406.615C303.695 416.614 296.426 424.72 287.46 424.72C278.494 424.72 271.226 416.614 271.226 406.615V229.105C271.226 219.106 278.494 211 287.46 211Z"
     fill="#C9CACC"
     id="path343" />
  <path
     d="M303.862 225.746H271.393V410.161H303.862V225.746Z"
     fill="#9A999B"
     id="path345" />
  <path
     fill-rule="evenodd"
     clip-rule="evenodd"
     d="M245.284 211C254.25 211 261.519 219.106 261.519 229.105V406.615C261.519 416.614 254.25 424.72 245.284 424.72C236.319 424.72 229.05 416.614 229.05 406.615V229.105C229.05 219.106 236.319 211 245.284 211Z"
     fill="#C9CACC"
     id="path347" />
  <path
     d="M261.017 225.746H228.548V410.161H261.017V225.746Z"
     fill="#9A999B"
     id="path349" />
  <path
     fill-rule="evenodd"
     clip-rule="evenodd"
     d="M203.025 211C211.945 211 219.176 219.064 219.176 229.012V406.708C219.176 416.657 211.945 424.72 203.025 424.72C194.105 424.72 186.875 416.657 186.875 406.708V229.012C186.875 219.064 194.105 211 203.025 211Z"
     fill="#C9CACC"
     id="path351" />
  <path
     d="M218.841 225.746H186.372V410.161H218.841V225.746Z"
     fill="#9A999B"
     id="path353" />
  <path
     fill-rule="evenodd"
     clip-rule="evenodd"
     d="M160.766 211C169.732 211 177 219.106 177 229.105V406.615C177 416.614 169.732 424.72 160.766 424.72C151.8 424.72 144.531 416.614 144.531 406.615V229.105C144.531 219.106 151.8 211 160.766 211Z"
     fill="#C9CACC"
     id="path355" />
  <path
     d="M176.665 225.746H144.197V410.161H176.665V225.746Z"
     fill="#9A999B"
     id="path357" />
  <path
     fill-rule="evenodd"
     clip-rule="evenodd"
     d="M118.59 211C127.556 211 134.824 219.106 134.824 229.105V406.615C134.824 416.614 127.556 424.72 118.59 424.72C109.624 424.72 102.356 416.614 102.356 406.615V229.105C102.356 219.106 109.624 211 118.59 211Z"
     fill="#C9CACC"
     id="path359" />
  <path
     d="M134.49 225.746H102.021V410.161H134.49V225.746Z"
     fill="#9A999B"
     id="path361" />
  <path
     fill-rule="evenodd"
     clip-rule="evenodd"
     d="M621.966 304.701H697C688.712 304.701 681.992 311.386 681.992 319.633C681.992 327.88 688.712 334.566 697 334.566H621.966C613.678 334.566 606.958 327.88 606.958 319.633C606.958 311.386 613.678 304.701 621.966 304.701Z"
     fill="#343433"
     id="path363" />
  <path
     d="M697 236.198H518.925V304.701H697V236.198Z"
     fill="#343433"
     id="path365" />
  <path
     d="M697 334.566H518.925V399.709H697V334.566Z"
     fill="#343433"
     id="path367" />
  <path
     d="M621.519 236.198H97V399.709H621.519V236.198Z"
     fill="#343433"
     id="path369" />
  <defs
     id="defs387">
    <clipPath
       id="clip0">
      <rect
         width="410.417"
         height="50"
         fill="white"
         transform="translate(0 565)"
         id="rect375" />
    </clipPath>
    <clipPath
       id="clip1">
      <rect
         width="306.25"
         height="50"
         fill="white"
         transform="translate(466 565)"
         id="rect378" />
    </clipPath>
    <clipPath
       id="clip2">
      <rect
         width="50"
         height="21.4602"
         fill="white"
         transform="translate(229 154)"
         id="rect381" />
    </clipPath>
    <clipPath
       id="clip3">
      <rect
         width="50"
         height="21.4602"
         fill="white"
         transform="translate(300 440)"
         id="rect384" />
    </clipPath>
  </defs>
  <text
     style="font-style:normal;font-variant:normal;font-weight:normal;font-stretch:normal;font-size:26.6667px;font-family:sans-serif;-inkscape-font-specification:sans-serif;fill:#000000"
     x="106.875"
     y="293.90622"
     id="text763"><tspan
       id="tspan761"
       x="106.875"
       y="293.90622"
       style="font-size:26.6667px;fill:#ffffff">Friday, November 3rd, 10:00 AM - 3:00 PM</tspan></text>
  <text
     style="font-style:normal;font-variant:normal;font-weight:normal;font-stretch:normal;font-size:26.6667px;font-family:sans-serif;-inkscape-font-specification:sans-serif;fill:#000000"
     x="211.54193"
     y="343.73566"
     id="text763-1"><tspan
       id="tspan761-1"
       x="211.54193"
       y="343.73566"
       style="font-size:26.6667px;fill:#ffffff">Price Center East Ballroom</tspan><tspan
       x="211.54193"
       y="377.06903"
       style="font-size:26.6667px;fill:#ffffff"
       id="tspan963" /></text>
</svg>
